<svg width="16" height="17" viewBox="0 0 16 17" fill="none" xmlns="http://www.w3.org/2000/svg">
<g id="Icon" clip-path="url(#clip0_430_8232)">
<path id="Vector" d="M7.63754 2.65174C7.78114 2.34395 8.21887 2.34395 8.36247 2.65174L10.2718 6.74321C10.3115 6.82835 10.38 6.89679 10.4651 6.93653L14.5566 8.84588C14.8644 8.98948 14.8644 9.42722 14.5566 9.57082L10.4651 11.4801C10.38 11.5199 10.3115 11.5884 10.2718 11.6735L8.36247 15.765C8.21887 16.0728 7.78114 16.0728 7.63754 15.765L5.72819 11.6735C5.68845 11.5884 5.62001 11.5199 5.53487 11.4801L1.4434 9.57082C1.13561 9.42722 1.13561 8.98948 1.4434 8.84588L5.53487 6.93653C5.62001 6.89679 5.68845 6.82835 5.72819 6.74321L7.63754 2.65174Z" stroke="#0E1633" stroke-linecap="round" stroke-linejoin="round"/>
</g>
<defs>
<clipPath id="clip0_430_8232">
<rect width="16" height="16" fill="white" transform="translate(0 0.875)"/>
</clipPath>
</defs>
</svg>
